<?xml version="1.0" encoding="utf-8"?>
<svg viewBox="0 0 512 512" width="512" height="512" xmlns="http://www.w3.org/2000/svg">
  <path d="M 239.637 0.568 C 43.709 13.946 -65.497 233.793 42.613 397.202 C 143.88 550.266 367.875 550.266 469.141 397.202 C 493.405 360.525 510.935 308.324 510.935 272.742 C 510.935 270.987 511.175 269.402 511.468 269.221 C 511.8 269.016 512 263.873 512 255.56 C 512 248.228 511.797 242.355 511.548 242.509 C 511.299 242.663 510.94 240.062 510.75 236.729 C 502.967 100.266 377.692 -8.859 239.637 0.568 M 358.38 136.707 C 358.199 137.001 357.586 137.241 357.017 137.241 C 356.448 137.241 355.983 137.48 355.983 137.774 C 355.983 138.067 355.605 138.307 355.143 138.307 C 354.188 138.307 350.162 142.491 350.141 143.506 C 350.133 143.873 349.887 144.173 349.594 144.173 C 349.301 144.173 349.061 144.773 349.061 145.506 C 349.061 146.239 348.822 146.839 348.529 146.839 C 347.863 146.839 347.824 152.39 348.48 153.646 C 348.747 154.155 349.286 155.31 349.678 156.214 C 350.619 158.377 352.7 160.975 357.708 166.238 C 359.974 168.62 361.831 170.76 361.834 170.993 C 361.838 171.226 362.38 171.973 363.039 172.652 C 363.698 173.332 365.195 175.264 366.367 176.946 C 367.538 178.629 368.736 180.289 369.029 180.636 C 369.895 181.661 371.468 184.36 371.786 185.367 C 371.949 185.88 372.294 186.3 372.553 186.3 C 372.811 186.3 373.023 186.66 373.023 187.1 C 373.023 187.54 373.202 187.906 373.422 187.914 C 373.642 187.921 374.54 189.478 375.419 191.373 C 376.298 193.268 377.196 194.821 377.416 194.825 C 377.636 194.829 377.815 195.312 377.815 195.899 C 377.815 196.485 378.055 196.965 378.348 196.965 C 378.641 196.965 378.88 197.445 378.88 198.032 C 378.88 198.618 379.12 199.098 379.413 199.098 C 379.705 199.098 379.945 199.578 379.945 200.165 C 379.945 200.751 380.185 201.231 380.478 201.231 C 380.77 201.231 381.01 201.663 381.01 202.191 C 381.01 202.719 381.207 203.378 381.448 203.657 C 381.689 203.936 382.338 205.604 382.889 207.364 C 383.44 209.123 384.081 210.791 384.314 211.07 C 384.547 211.349 384.737 212.128 384.737 212.803 C 384.737 213.477 384.977 214.029 385.27 214.029 C 385.563 214.029 385.802 214.749 385.802 215.629 C 385.802 216.509 386.042 217.229 386.335 217.229 C 386.628 217.229 386.867 218.189 386.867 219.362 C 386.867 220.535 387.107 221.495 387.4 221.495 C 387.693 221.495 387.932 222.44 387.932 223.596 C 387.932 224.752 388.146 225.831 388.408 225.993 C 388.67 226.155 389.034 227.309 389.217 228.557 C 389.399 229.806 389.776 232.386 390.055 234.293 C 391.319 242.937 391.602 246.941 391.602 256.156 C 391.602 265.417 391.335 269.167 390.026 278.286 C 389.731 280.339 389.355 283.039 389.19 284.286 C 389.025 285.532 388.675 286.552 388.411 286.552 C 388.148 286.552 387.932 287.512 387.932 288.685 C 387.932 289.858 387.693 290.818 387.4 290.818 C 387.107 290.818 386.867 291.778 386.867 292.951 C 386.867 294.124 386.628 295.084 386.335 295.084 C 386.042 295.084 385.802 295.804 385.802 296.684 C 385.802 297.564 385.563 298.283 385.27 298.283 C 384.977 298.283 384.737 298.835 384.737 299.51 C 384.737 300.185 384.547 300.965 384.314 301.243 C 384.081 301.522 383.44 303.189 382.889 304.949 C 382.338 306.709 381.689 308.376 381.448 308.655 C 381.207 308.934 381.01 309.594 381.01 310.122 C 381.01 310.65 380.77 311.082 380.478 311.082 C 380.185 311.082 379.945 311.561 379.945 312.148 C 379.945 312.735 379.705 313.215 379.413 313.215 C 379.12 313.215 378.88 313.695 378.88 314.281 C 378.88 314.868 378.641 315.348 378.348 315.348 C 378.055 315.348 377.815 315.828 377.815 316.414 C 377.815 317.001 377.636 317.484 377.416 317.488 C 377.196 317.491 376.298 319.045 375.419 320.94 C 374.54 322.835 373.642 324.392 373.422 324.399 C 373.202 324.407 373.023 324.773 373.023 325.213 C 373.023 325.653 372.811 326.013 372.553 326.013 C 372.294 326.013 371.949 326.433 371.786 326.946 C 371.468 327.952 369.895 330.652 369.029 331.677 C 368.736 332.024 367.538 333.684 366.367 335.367 C 365.195 337.048 363.698 338.981 363.039 339.66 C 362.38 340.34 361.838 341.086 361.834 341.32 C 361.831 341.553 359.974 343.692 357.708 346.074 C 352.7 351.338 350.619 353.936 349.678 356.099 C 349.286 357.002 348.747 358.158 348.48 358.667 C 347.824 359.923 347.863 365.474 348.529 365.474 C 348.822 365.474 349.061 366.073 349.061 366.807 C 349.061 367.54 349.301 368.14 349.594 368.14 C 349.887 368.14 350.126 368.442 350.126 368.812 C 350.126 369.736 354.335 374.006 355.246 374.006 C 355.652 374.006 355.986 374.185 355.988 374.406 C 356.002 375.82 365.023 376.919 365.834 375.605 C 366.015 375.312 366.569 375.069 367.064 375.065 C 369.239 375.048 379.357 364.899 385.259 356.815 C 386.386 355.271 387.808 353.371 388.419 352.591 C 389.03 351.812 389.53 350.965 389.53 350.709 C 389.53 350.454 390.009 349.899 390.595 349.476 C 391.18 349.053 391.66 348.4 391.66 348.025 C 391.66 347.65 391.873 347.343 392.134 347.343 C 392.394 347.343 393.11 346.323 393.725 345.077 C 395.097 342.294 397.304 338.488 398.645 336.596 C 399.196 335.817 399.647 334.917 399.647 334.596 C 399.647 334.274 399.828 334.012 400.049 334.012 C 400.271 334.012 400.786 333.232 401.195 332.278 C 401.603 331.325 402.74 328.867 403.721 326.814 C 404.702 324.762 405.504 322.783 405.504 322.415 C 405.504 322.047 405.744 321.747 406.037 321.747 C 406.329 321.747 406.569 321.281 406.569 320.712 C 406.569 320.142 406.809 319.528 407.102 319.347 C 407.394 319.166 407.634 318.552 407.634 317.982 C 407.634 317.413 407.874 316.947 408.167 316.947 C 408.459 316.947 408.699 316.362 408.699 315.646 C 408.699 314.93 408.911 314.212 409.171 314.052 C 409.431 313.891 409.807 312.888 410.006 311.822 C 410.362 309.921 410.572 309.357 411.811 306.956 C 412.149 306.3 412.426 305.295 412.426 304.721 C 412.426 304.148 412.666 303.531 412.959 303.349 C 413.252 303.168 413.491 302.208 413.491 301.216 C 413.491 300.225 413.731 299.265 414.024 299.083 C 414.317 298.902 414.556 297.942 414.556 296.95 C 414.556 295.958 414.796 294.999 415.089 294.817 C 415.382 294.636 415.621 293.662 415.621 292.653 C 415.621 291.643 415.838 290.818 416.102 290.818 C 416.367 290.818 416.714 289.678 416.875 288.285 C 417.034 286.892 417.416 283.592 417.721 280.953 C 418.028 278.313 418.518 275.147 418.813 273.917 C 419.511 271.005 419.511 241.308 418.813 238.395 C 418.518 237.166 418.028 234 417.721 231.36 C 417.416 228.72 417.034 225.421 416.875 224.028 C 416.714 222.634 416.367 221.495 416.102 221.495 C 415.838 221.495 415.621 220.535 415.621 219.362 C 415.621 218.189 415.382 217.229 415.089 217.229 C 414.796 217.229 414.556 216.403 414.556 215.394 C 414.556 214.384 414.317 213.411 414.024 213.229 C 413.731 213.048 413.491 212.088 413.491 211.096 C 413.491 210.104 413.252 209.145 412.959 208.963 C 412.666 208.782 412.426 208.164 412.426 207.591 C 412.426 207.018 412.187 206.073 411.894 205.49 C 411.601 204.907 411.138 203.98 410.865 203.43 C 410.593 202.879 410.206 201.557 410.006 200.491 C 409.807 199.425 409.431 198.421 409.171 198.261 C 408.911 198.1 408.699 197.383 408.699 196.667 C 408.699 195.951 408.459 195.365 408.167 195.365 C 407.874 195.365 407.634 194.9 407.634 194.33 C 407.634 193.761 407.394 193.147 407.102 192.966 C 406.809 192.784 406.569 192.171 406.569 191.601 C 406.569 191.032 406.329 190.566 406.037 190.566 C 405.744 190.566 405.504 190.265 405.504 189.898 C 405.504 189.53 404.702 187.55 403.721 185.498 C 402.74 183.446 401.603 180.988 401.195 180.034 C 400.786 179.081 400.271 178.301 400.049 178.301 C 399.828 178.301 399.647 178.038 399.647 177.717 C 399.647 177.396 399.196 176.496 398.645 175.717 C 397.304 173.824 395.097 170.019 393.725 167.236 C 393.11 165.99 392.394 164.97 392.134 164.97 C 391.873 164.97 391.66 164.698 391.66 164.366 C 391.66 164.033 391.24 163.37 390.728 162.892 C 390.216 162.413 389.556 161.63 389.263 161.151 C 385.008 154.194 371.785 139.362 368.485 137.845 C 367.613 137.444 366.483 136.904 365.975 136.645 C 364.709 136 358.786 136.049 358.38 136.707 M 315.766 175.901 C 313.609 176.617 309.127 179.5 309.126 180.172 C 309.126 180.469 308.646 181.011 308.06 181.377 C 307.475 181.743 306.995 182.521 306.995 183.105 C 306.995 183.689 306.781 184.167 306.519 184.167 C 306.096 184.167 305.419 187.317 305.372 189.499 C 305.324 191.721 306.572 196.031 307.535 196.965 C 307.686 197.112 309.243 198.911 310.996 200.964 C 312.75 203.017 314.551 205.057 314.999 205.497 C 316.263 206.737 319.775 211.835 319.775 212.43 C 319.775 212.723 319.987 212.963 320.245 212.963 C 320.504 212.963 320.848 213.383 321.011 213.896 C 321.305 214.824 322.987 217.786 323.509 218.295 C 323.66 218.442 324.345 219.762 325.032 221.228 C 325.719 222.695 326.456 224.254 326.669 224.694 C 326.883 225.134 327.476 226.934 327.987 228.694 C 328.497 230.453 329.135 232.31 329.404 232.819 C 329.672 233.328 329.892 234.334 329.892 235.054 C 329.892 235.774 330.132 236.511 330.424 236.693 C 330.717 236.874 330.957 237.714 330.957 238.559 C 330.957 239.404 331.197 240.244 331.489 240.425 C 331.782 240.607 332.022 242.286 332.022 244.158 C 332.022 246.03 332.261 247.71 332.554 247.891 C 332.871 248.087 333.087 251.441 333.087 256.156 C 333.087 260.872 332.871 264.226 332.554 264.422 C 332.261 264.603 332.022 266.283 332.022 268.155 C 332.022 270.026 331.782 271.706 331.489 271.887 C 331.197 272.069 330.957 273.042 330.957 274.052 C 330.957 275.061 330.717 275.887 330.424 275.887 C 330.132 275.887 329.892 276.49 329.892 277.227 C 329.892 277.964 329.672 278.984 329.404 279.494 C 329.135 280.003 328.497 281.859 327.987 283.619 C 327.476 285.379 326.883 287.178 326.669 287.618 C 326.456 288.058 325.719 289.618 325.032 291.085 C 324.345 292.551 323.66 293.871 323.509 294.017 C 322.987 294.527 321.305 297.489 321.011 298.417 C 320.848 298.93 320.504 299.35 320.245 299.35 C 319.987 299.35 319.775 299.589 319.775 299.882 C 319.775 300.688 316.046 305.771 313.907 307.882 C 312.867 308.909 311.308 310.708 310.443 311.881 C 309.578 313.055 308.507 314.374 308.062 314.814 C 306.589 316.272 305.312 320.069 305.372 322.813 C 305.419 324.995 306.096 328.146 306.519 328.146 C 306.781 328.146 306.995 328.626 306.995 329.212 C 306.995 329.799 307.235 330.279 307.528 330.279 C 307.821 330.279 308.06 330.536 308.06 330.85 C 308.06 331.468 309.37 332.945 309.917 332.945 C 310.102 332.945 311.137 333.637 312.218 334.482 C 319.894 340.485 327.43 336.628 339.319 320.61 C 340.706 318.742 341.973 317.094 342.135 316.947 C 343.886 315.365 352.011 299.645 353.579 294.806 C 354.052 293.346 354.667 291.611 354.945 290.951 C 356.21 287.95 356.455 287.26 356.742 285.885 C 356.911 285.078 357.186 283.759 357.355 282.952 C 357.523 282.146 357.866 281.006 358.117 280.419 C 358.593 279.306 358.839 278.079 359.827 271.887 C 360.607 267.001 360.595 245.205 359.81 240.425 C 359.473 238.372 359.047 235.671 358.865 234.423 C 358.683 233.175 358.319 232.021 358.057 231.859 C 357.795 231.696 357.581 230.752 357.581 229.76 C 357.581 228.768 357.341 227.808 357.048 227.627 C 356.756 227.446 356.516 226.708 356.516 225.989 C 356.516 225.269 356.305 224.263 356.046 223.754 C 355.192 222.073 354.451 220.197 353.579 217.507 C 352.236 213.364 345.436 199.791 343.87 198.129 C 343.504 197.74 343.204 197.216 343.204 196.965 C 343.204 196.714 342.9 196.191 342.53 195.803 C 342.159 195.416 340.506 193.299 338.857 191.099 C 337.209 188.9 335.096 186.38 334.162 185.5 C 333.228 184.62 331.64 182.779 330.631 181.409 C 327.178 176.718 320.624 174.289 315.766 175.901 M 201.564 176.118 C 199.757 176.494 195.714 178.201 195.174 178.815 C 195.028 178.982 194.07 179.801 193.044 180.635 C 192.019 181.469 189.983 183.266 188.518 184.629 C 187.054 185.991 184.898 187.925 183.726 188.925 C 180.735 191.478 174.351 197.14 169.85 201.231 C 167.753 203.137 163.333 207.097 160.029 210.03 C 156.724 212.963 152.774 216.502 151.25 217.895 C 148.525 220.387 147.427 220.862 146.426 219.985 C 144.788 218.55 140.76 218.295 119.665 218.295 C 105.658 218.295 97.675 218.487 97.464 218.828 C 97.283 219.122 96.657 219.362 96.072 219.362 C 94.413 219.362 89.039 223.296 87.484 225.649 C 84.352 230.388 84.419 229.754 84.419 255.14 L 84.419 278.523 L 85.743 281.523 C 87.877 286.354 91.87 289.546 97.997 291.32 C 102.708 292.683 146.186 291.622 146.186 290.143 C 146.186 289.838 147.593 290.886 149.311 292.47 C 151.03 294.054 155.024 297.63 158.188 300.416 C 161.352 303.203 165.647 307.042 167.731 308.949 C 169.817 310.855 172.471 313.235 173.63 314.239 C 174.79 315.242 177.061 317.282 178.676 318.772 C 182.704 322.487 190.199 329.196 192.778 331.394 C 193.95 332.393 195.028 333.343 195.174 333.507 C 202.398 341.571 224.461 331.411 224.461 320.02 C 224.461 319.621 224.761 318.993 225.126 318.627 C 226.016 317.737 226.11 194.881 225.222 193.714 C 224.909 193.303 224.327 191.886 223.929 190.566 C 223.532 189.246 222.89 187.788 222.502 187.324 C 222.115 186.861 221.798 186.324 221.798 186.131 C 221.798 181.257 208.496 174.674 201.564 176.118 M 273.183 206.234 C 272.011 206.561 270.754 207.024 270.387 207.262 C 270.021 207.499 269.722 207.527 269.722 207.325 C 269.722 206.559 265.037 211.711 264.11 213.496 C 261.854 217.837 263.047 225.64 266.473 228.954 C 268.944 231.343 271.774 235.404 273.491 239.021 C 274.414 240.967 275.382 242.975 275.641 243.484 C 275.899 243.993 276.111 244.879 276.111 245.452 C 276.111 246.026 276.322 246.625 276.579 246.784 C 278.096 247.723 278.094 264.591 276.577 265.529 C 276.321 265.688 276.111 266.287 276.111 266.86 C 276.111 267.434 275.903 268.319 275.648 268.829 C 275.393 269.338 274.304 271.554 273.227 273.754 C 271.455 277.373 270.437 278.796 266.266 283.473 C 257.56 293.238 269.073 312.071 280.246 306.341 C 280.754 306.081 282.088 305.421 283.21 304.875 C 285.63 303.698 289.195 299.981 292.6 295.084 C 293.314 294.057 294.037 293.098 294.206 292.951 C 294.72 292.507 298.137 286.46 299.48 283.619 C 300.645 281.155 301.104 280.087 302.233 277.22 C 302.666 276.12 303.357 273.562 303.603 272.154 C 303.68 271.714 304.044 269.794 304.412 267.888 C 305.634 261.567 305.24 247.569 303.647 240.692 C 303.545 240.252 303.284 239.052 303.068 238.026 C 302.851 236.999 302.416 235.559 302.101 234.826 C 301.785 234.093 301.355 233.013 301.142 232.426 C 300.93 231.84 300.243 230.317 299.616 229.043 C 298.989 227.769 298.476 226.39 298.476 225.977 C 298.476 225.565 298.296 225.225 298.076 225.222 C 297.856 225.218 297.201 224.198 296.62 222.955 C 296.038 221.712 295.438 220.575 295.286 220.428 C 295.133 220.282 294.17 218.987 293.148 217.551 C 286.285 207.92 279.959 204.334 273.183 206.234 M 0.518 256.156 C 0.518 263.635 0.593 266.695 0.684 262.955 C 0.776 259.216 0.776 253.097 0.684 249.357 C 0.593 245.618 0.518 248.677 0.518 256.156" stroke="none" fill-rule="evenodd" style="fill: rgb(152, 0, 0);"/>
</svg>